<svg width="24" height="34" viewBox="0 0 24 34" fill="none" xmlns="http://www.w3.org/2000/svg">
<path d="M1.01956 33C0.739838 32.9736 0.480099 32.8436 0.291425 32.6354C0.102752 32.4272 -0.00120057 32.156 1.04632e-05 31.875V2.625C1.04632e-05 1.19021 1.19022 0 2.62501 0H21.375C22.8098 0 24 1.19021 24 2.625V31.875C24.0006 32.081 23.9447 32.2833 23.8383 32.4597C23.7318 32.6361 23.579 32.7799 23.3964 32.8754C23.2139 32.9709 23.0086 33.0144 22.803 33.0013C22.5974 32.9881 22.3993 32.9187 22.2304 32.8007L12 25.7461L1.76956 32.8007C1.5511 32.954 1.28528 33.0246 1.01956 33ZM2.25001 29.7304L11.3555 23.4492C11.5444 23.3171 11.7694 23.2463 12 23.2463C12.2306 23.2463 12.4556 23.3171 12.6446 23.4492L21.75 29.7304V2.625C21.75 2.39778 21.6022 2.25 21.375 2.25H2.62501C2.3978 2.25 2.25001 2.39778 2.25001 2.625V29.7304Z" fill="#72ACFF"/>
</svg>
