<svg width="24" height="24" viewBox="0 0 24 24" fill="none" xmlns="http://www.w3.org/2000/svg">
<path d="M8.40105 24C6.69117 24 6.00121 22.86 6.00121 21C6.06121 18.75 6.69117 16.53 7.62111 14.49C6.30119 14.37 4.95128 14.4 3.60138 14.4C1.35153 14.4 0.00161743 13.47 0.00161743 11.7C-0.0283794 10.98 0.361593 10.41 0.931555 9.99L0.901558 9.96C0.421589 8.85 0.451588 7.77 1.53152 6.99L1.50152 6.96C1.02155 5.85 1.05155 4.77 2.13147 3.99L2.10148 3.96C1.7715 3.03 1.8315 3.45 1.7715 2.7C1.7715 1.05 2.97142 0 4.7713 0H8.40105C10.3809 0 12.6608 0.179998 14.6406 0.48C15.1506 0.569998 15.6606 0.629999 16.2005 0.75V0.599998C16.2005 0.269999 16.4705 0 16.8005 0H23.4C23.73 0 24 0.269999 24 0.599998V15C24 15.33 23.73 15.6 23.4 15.6H16.8005C16.4705 15.6 16.2005 15.33 16.2005 15V14.91C14.8806 15.69 13.9207 16.95 12.9607 18.12C12.7208 18.45 12.4808 18.81 12.2408 19.23C11.9108 19.8 10.7709 22.11 10.5009 22.56C9.93095 23.46 9.30099 24 8.40105 24ZM22.8001 14.4V1.2H17.4004V14.4H22.8001ZM8.40105 22.8C9.60097 22.8 10.2009 19.8 12.0008 17.4C13.1107 15.87 14.4606 14.58 16.0205 13.56L16.2005 13.47V2.01C13.6507 1.38 11.0109 1.29 8.40105 1.2C8.40105 1.2 6.00121 1.2 4.80129 1.2C3.60138 1.2 3.00142 1.8 3.00142 2.7C3.00142 3.6 3.60138 3.6 3.60138 4.2C3.60138 4.8 2.40146 4.8 2.40146 5.7C2.40146 6.6 3.00142 6.6 3.00142 7.2C3.00142 7.8 1.8015 7.8 1.8015 8.7C1.8015 9.6 2.40146 9.6 2.40146 10.2C2.40146 10.8 1.20154 10.8 1.20154 11.7C1.20154 12.6 1.8015 13.2 3.60138 13.2C7.80109 13.2 9.60097 13.2 9.00101 14.4C8.34106 15.72 7.20113 18.6 7.20113 21C7.20113 22.2 7.47112 22.8 8.40105 22.8Z" fill="#72ACFF"/>
</svg>
