<svg width="24" height="24" viewBox="0 0 24 24" fill="none" xmlns="http://www.w3.org/2000/svg">
<path d="M15.5989 0C17.3088 0 17.9988 1.14 17.9988 3C17.9388 5.25 17.3088 7.47 16.3789 9.51C17.6988 9.63 19.0487 9.6 20.3986 9.6C22.6485 9.6 23.9984 10.53 23.9984 12.3C24.0284 13.02 23.6384 13.59 23.0684 14.01L23.0984 14.04C23.5784 15.15 23.5484 16.23 22.4685 17.01L22.4985 17.04C22.9785 18.15 22.9485 19.23 21.8685 20.01L21.8985 20.04C22.2285 20.97 22.1685 20.55 22.2285 21.3C22.2285 22.95 21.0286 24 19.2287 24H15.5989C13.6191 24 11.3392 23.82 9.35937 23.52C8.8494 23.43 8.33944 23.37 7.79947 23.25V23.4C7.79947 23.73 7.52949 24 7.19951 24H0.59996C0.269982 24 0 23.73 0 23.4V9C0 8.67 0.269982 8.4 0.59996 8.4H7.19951C7.52949 8.4 7.79947 8.67 7.79947 9V9.09C9.11938 8.31 10.0793 7.05 11.0393 5.88C11.2792 5.55 11.5192 5.19 11.7592 4.77C12.0892 4.2 13.2291 1.89 13.4991 1.44C14.0691 0.54 14.699 0 15.5989 0ZM1.19992 9.6V22.8H6.59956V9.6H1.19992ZM15.5989 1.2C14.399 1.2 13.7991 4.2 11.9992 6.6C10.8893 8.13 9.53936 9.42 7.97946 10.44L7.79947 10.53V21.99C10.3493 22.62 12.9891 22.71 15.5989 22.8C15.5989 22.8 17.9988 22.8 19.1987 22.8C20.3986 22.8 20.9986 22.2 20.9986 21.3C20.9986 20.4 20.3986 20.4 20.3986 19.8C20.3986 19.2 21.5985 19.2 21.5985 18.3C21.5985 17.4 20.9986 17.4 20.9986 16.8C20.9986 16.2 22.1985 16.2 22.1985 15.3C22.1985 14.4 21.5985 14.4 21.5985 13.8C21.5985 13.2 22.7985 13.2 22.7985 12.3C22.7985 11.4 22.1985 10.8 20.3986 10.8C16.1989 10.8 14.399 10.8 14.999 9.6C15.6589 8.28 16.7989 5.4 16.7989 3C16.7989 1.8 16.5289 1.2 15.5989 1.2Z" fill="#72ACFF"/>
</svg>
